<svg width="116" height="26" viewBox="0 0 116 26" fill="none" xmlns="http://www.w3.org/2000/svg">
<g filter="url(#filter0_d_0_472)">
<path fill-rule="evenodd" clip-rule="evenodd" d="M107.847 2.65852V17.4498H105.734V2.65852H101.978V1.01504H111.604V2.65852H107.847ZM99.7123 11.3572C99.3444 11.819 98.8827 12.1477 98.3271 12.3433C97.7714 12.539 97.1101 12.6368 96.3431 12.6368C95.9831 12.6368 95.5762 12.6133 95.1223 12.5663C94.6684 12.5194 94.2927 12.4646 93.9953 12.402V17.4498H91.8823V1.24983C92.4771 1.07765 93.0758 0.956348 93.6784 0.885913C94.281 0.815478 94.9344 0.780261 95.6388 0.780261C96.5779 0.780261 97.3762 0.878087 98.0336 1.07374C98.691 1.26939 99.2231 1.59417 99.6301 2.04809C100.037 2.502 100.334 3.10461 100.522 3.85591C100.71 4.60722 100.804 5.53852 100.804 6.64983C100.804 7.79243 100.714 8.74722 100.534 9.51417C100.354 10.2811 100.08 10.8955 99.7123 11.3572ZM98.5149 4.53678C98.3975 3.9733 98.2136 3.52722 97.9631 3.19852C97.7127 2.86983 97.3957 2.63896 97.0123 2.50591C96.6288 2.37287 96.171 2.30635 95.6388 2.30635H93.9953V10.9933H95.6388C96.171 10.9933 96.6288 10.9268 97.0123 10.7937C97.3957 10.6607 97.7127 10.4298 97.9631 10.1011C98.2136 9.77244 98.3975 9.32635 98.5149 8.76287C98.6323 8.19939 98.691 7.49504 98.691 6.64983C98.691 5.80461 98.6323 5.10026 98.5149 4.53678ZM86.5997 13.2237H81.904L80.8475 17.4498H78.7344L82.7257 1.01504H85.7779L89.7692 17.4498H87.6562L86.5997 13.2237ZM84.2988 3.36287H84.2049L82.2562 11.5803H86.2475L84.2988 3.36287ZM74.1562 5.24113H74.0388L70.6344 15.3368H68.5214L65.1171 5.24113H64.9997L64.2953 17.4498H62.1823L63.1214 1.01504H65.704L69.531 12.2846H69.6249L73.4518 1.01504H76.0344L76.9736 17.4498H74.8605L74.1562 5.24113ZM58.3788 15.9237C57.9405 16.5655 57.4123 17.0194 56.794 17.2855C56.1757 17.5516 55.4675 17.6846 54.6692 17.6846C53.871 17.6846 53.1627 17.5516 52.5444 17.2855C51.9262 17.0194 51.3979 16.5655 50.9597 15.9237C50.5214 15.282 50.1888 14.4172 49.9618 13.3294C49.7349 12.2416 49.6214 10.8759 49.6214 9.23244C49.6214 7.58896 49.7349 6.2233 49.9618 5.13548C50.1888 4.04765 50.5214 3.18287 50.9597 2.54113C51.3979 1.89939 51.9262 1.44548 52.5444 1.17939C53.1627 0.913305 53.871 0.780261 54.6692 0.780261C55.4675 0.780261 56.1757 0.913305 56.794 1.17939C57.4123 1.44548 57.9405 1.89939 58.3788 2.54113C58.8171 3.18287 59.1497 4.04765 59.3766 5.13548C59.6036 6.2233 59.7171 7.58896 59.7171 9.23244C59.7171 10.8759 59.6036 12.2416 59.3766 13.3294C59.1497 14.4172 58.8171 15.282 58.3788 15.9237ZM57.3575 5.75765C57.1931 4.84983 56.9779 4.12983 56.7118 3.59765C56.4457 3.06548 56.1327 2.69765 55.7727 2.49417C55.4127 2.2907 55.0449 2.18896 54.6692 2.18896C54.2936 2.18896 53.9257 2.2907 53.5657 2.49417C53.2057 2.69765 52.8927 3.06548 52.6266 3.59765C52.3605 4.12983 52.1453 4.84983 51.981 5.75765C51.8166 6.66548 51.7344 7.82374 51.7344 9.23244C51.7344 10.6411 51.8166 11.7994 51.981 12.7072C52.1453 13.615 52.3605 14.335 52.6266 14.8672C52.8927 15.3994 53.2057 15.7672 53.5657 15.9707C53.9257 16.1742 54.2936 16.2759 54.6692 16.2759C55.0449 16.2759 55.4127 16.1742 55.7727 15.9707C56.1327 15.7672 56.4457 15.3994 56.7118 14.8672C56.9779 14.335 57.1931 13.615 57.3575 12.7072C57.5218 11.7994 57.604 10.6411 57.604 9.23244C57.604 7.82374 57.5218 6.66548 57.3575 5.75765ZM44.691 9.93678H39.7605V17.4498H37.6475V1.01504H39.7605V8.2933H44.691V1.01504H46.804V17.4498H44.691V9.93678ZM33.5396 17.4498L30.6048 10.4063L27.67 17.4498H25.557L29.0787 8.99765L25.9091 1.01504H28.0222L30.6048 7.58896L33.1874 1.01504H35.3004L32.1309 8.99765L35.6526 17.4498H33.5396ZM16.283 1.01504H24.2657V2.65852H18.3961V8.05852H23.5613V9.702H18.3961V15.8063H24.2657V17.4498H16.283V1.01504ZM10.6483 17.4498H8.53522V2.65852H4.7787V1.01504H14.4048V2.65852H10.6483V17.4498Z" fill="white"/>
</g>
<defs>
<filter id="filter0_d_0_472" x="0" y="0" width="116" height="26" filterUnits="userSpaceOnUse" color-interpolation-filters="sRGB">
<feFlood flood-opacity="0" result="BackgroundImageFix"/>
<feColorMatrix in="SourceAlpha" type="matrix" values="0 0 0 0 0 0 0 0 0 0 0 0 0 0 0 0 0 0 127 0" result="hardAlpha"/>
<feOffset dy="4"/>
<feGaussianBlur stdDeviation="2"/>
<feComposite in2="hardAlpha" operator="out"/>
<feColorMatrix type="matrix" values="0 0 0 0 0 0 0 0 0 0 0 0 0 0 0 0 0 0 0.25 0"/>
<feBlend mode="normal" in2="BackgroundImageFix" result="effect1_dropShadow_0_472"/>
<feBlend mode="normal" in="SourceGraphic" in2="effect1_dropShadow_0_472" result="shape"/>
</filter>
</defs>
</svg>
